<?xml version="1.0" encoding="utf-8"?>
<!-- Generator: Adobe Illustrator 24.3.0, SVG Export Plug-In . SVG Version: 6.00 Build 0)  -->
<svg version="1.0" id="Layer_1" xmlns="http://www.w3.org/2000/svg" xmlns:xlink="http://www.w3.org/1999/xlink" x="0px" y="0px"
	 viewBox="0 0 192 192" style="enable-background:new 0 0 192 192;" xml:space="preserve">

<g>
	<path fill="#0F68B1" d="M157,192H35c-19.3,0-35-15.7-35-35V35C0,15.7,15.7,0,35,0h122c19.3,0,35,15.7,35,35v122
		C192,176.3,176.3,192,157,192z"/>
	<g>
		<g>
			<path fill="#FFFFFF" d="M117.3,77.6c-3.2,0-5.8,2.6-5.8,5.8c0,0.2,0,0.3,0,0.5v3.7c0,10.6-5.5,17-15.1,17s-16-5.9-16-17v-3.7
				c0-0.1,0-0.3,0-0.4c0-3.2-2.6-5.8-5.8-5.8c-3.2,0-5.8,2.6-5.8,5.8c0,0,0,0.1,0,0.1v4c0,18.6,12.6,27.6,27.4,27.6
				c15.5,0,26.7-9.3,26.7-27.6v-4.1C123.1,80.2,120.5,77.6,117.3,77.6z"/>
			<path fill="#FFFFFF" d="M80.5,58.3c0-0.1,0-0.3,0-0.4c0-3.2-2.6-5.8-5.8-5.8c-3.2,0-5.8,2.6-5.8,5.8c0,0,0,0.1,0,0.1v10.5h0v2.3
				c0,0,0,0,0,0c0,0,0,0,0,0h0c0,0,0,0,0,0l0,0v0c0.4-2.7,2.8-4.8,5.7-4.8c2.9,0,5.3,2.1,5.7,4.8h0c0,0,0,0,0,0c0,0,0,0,0,0v-2.3h0
				V58.3z"/>
			<path fill="#FFFFFF" d="M123,58.3c0-0.1,0-0.3,0-0.4c0-3.2-2.6-5.8-5.8-5.8c-3.2,0-5.8,2.6-5.8,5.8c0,0,0,0.1,0,0.1v10.5h0v2.3
				c0,0,0,0,0,0c0,0,0,0,0,0h0c0,0,0,0,0,0l0,0v0c0.4-2.7,2.8-4.8,5.7-4.8c2.9,0,5.3,2.1,5.7,4.8h0c0,0,0,0,0,0c0,0,0,0,0,0v-2.3h0
				V58.3z"/>
		</g>
		<path fill="#FFFFFF" d="M155.2,170.4H36.8V21.6h118.3V170.4z M46.4,160.9h99.2V31.1H46.4V160.9z"/>
		<path fill="#FFFFFF" d="M132.1,142.1l-5.2,5.2v-5.2H132.1 M155.2,132.6h-37.9v37.9L155.2,132.6L155.2,132.6z"/>
	</g>
</g>
</svg>
